<svg width="117" height="24" viewBox="0 0 117 24" fill="none" xmlns="http://www.w3.org/2000/svg">
<path d="M16.678 7.81017C15.9458 6.99661 15.0508 6.26441 13.9932 5.85763C12.9356 5.36949 11.7966 5.12542 10.4949 5.12542C9.68136 5.12542 8.94915 5.20678 8.29831 5.36949C7.64746 5.5322 7.07797 5.77627 6.58983 6.02034C6.1017 6.34576 5.69492 6.58983 5.36949 6.91525C5.04407 7.15932 4.8 7.48475 4.63729 7.72881V0H0V23.3492H4.39322V20.9085C5.04407 21.8847 5.85763 22.6169 6.8339 23.1051C7.89153 23.5932 9.11187 23.8373 10.3322 23.8373C11.7153 23.8373 12.9356 23.5932 13.9932 23.1051C15.0508 22.6169 16.0271 21.9661 16.7593 21.1525C17.4915 20.339 18.061 19.2814 18.4678 18.1424C18.8746 17.0034 19.0373 15.7831 19.0373 14.4814C19.0373 13.1797 18.7932 11.9593 18.3864 10.8203C17.9797 9.68136 17.4102 8.62373 16.678 7.81017ZM14.4814 14.4814C14.4814 15.1322 14.4 15.7831 14.1559 16.4339C13.9119 17.0847 13.5864 17.5729 13.1797 18.061C12.7729 18.5492 12.2034 18.9559 11.6339 19.2C10.9831 19.5254 10.3322 19.6068 9.51864 19.6068C8.70508 19.6068 8.05424 19.4441 7.40339 19.2C6.75254 18.8746 6.26441 18.5492 5.85763 18.061C5.45085 17.5729 5.12542 17.0034 4.88136 16.4339C4.63729 15.7831 4.55593 15.1322 4.55593 14.4814C4.55593 13.8305 4.63729 13.1797 4.88136 12.5288C5.12542 11.878 5.45085 11.3898 5.85763 10.9017C6.26441 10.4136 6.8339 10.0068 7.40339 9.76271C8.05424 9.43729 8.70508 9.35593 9.51864 9.35593C10.3322 9.35593 10.9831 9.51864 11.6339 9.76271C12.2847 10.0881 12.7729 10.4136 13.1797 10.9017C13.5864 11.3898 13.9119 11.9593 14.1559 12.5288C14.3186 13.1797 14.4814 13.8305 14.4814 14.4814Z" fill="white"/>
<path d="M34.1695 15.2949C34.1695 15.8644 34.0881 16.4339 33.9254 16.9221C33.7627 17.4102 33.5186 17.8983 33.2746 18.3051C32.9491 18.7119 32.5424 19.0373 32.0542 19.2814C31.5661 19.5254 30.9966 19.6068 30.2644 19.6068C29.5322 19.6068 28.9627 19.4441 28.5559 19.1187C28.1491 18.7932 27.8237 18.3865 27.661 17.817C27.4983 17.3288 27.3356 16.7593 27.2542 16.1899C27.1729 15.6204 27.1729 15.0509 27.1729 14.5627V5.53223H22.6169V16.7593C22.6169 17.6543 22.6983 18.5492 22.9424 19.3627C23.1864 20.1763 23.5119 20.9899 24.0814 21.6407C24.5695 22.2915 25.3017 22.861 26.1152 23.1865C26.9288 23.5932 27.9864 23.756 29.1254 23.756C30.5898 23.756 31.8102 23.4305 32.6237 22.7797C33.3559 22.2102 34.0068 21.478 34.4136 20.7458V23.3492H38.8068V5.53223H34.1695V15.2949Z" fill="white"/>
<path d="M58.495 7.24068C58.0068 6.58983 57.2746 6.1017 56.4611 5.69492C55.6475 5.28814 54.5899 5.12543 53.4509 5.12543C51.9865 5.12543 50.7661 5.45085 49.9526 6.1017C49.2204 6.67119 48.5695 7.40339 48.1628 8.1356V5.53221H43.7695V23.3492H48.3255V13.6678C48.3255 13.0983 48.4068 12.5288 48.5695 12.0407C48.7322 11.5525 48.9763 11.0644 49.2204 10.6576C49.5458 10.2509 49.9526 9.92543 50.4407 9.68136C50.9289 9.43729 51.4983 9.35594 52.2305 9.35594C52.9627 9.35594 53.5322 9.51865 53.939 9.84407C54.3458 10.1695 54.6712 10.5763 54.8339 11.1458C54.9966 11.6339 55.1594 12.2034 55.2407 12.7729C55.3221 13.3424 55.3221 13.9119 55.3221 14.4V23.4305H59.878V12.122C59.878 11.2271 59.7966 10.3322 59.5526 9.51865C59.3899 8.70509 58.9831 7.89153 58.495 7.24068Z" fill="white"/>
<path d="M75.0915 13.6678C74.3593 13.261 73.6271 13.0169 72.8135 12.8542C72 12.6915 71.2678 12.5288 70.5356 12.2847C69.8034 12.122 69.2339 11.8779 68.8271 11.6339C68.4203 11.3898 68.1763 11.0644 68.1763 10.5762C68.1763 9.9254 68.4203 9.51862 68.9898 9.27455C69.5593 9.03048 70.0474 8.86777 70.6169 8.86777C72 8.86777 73.139 9.43726 73.9525 10.6576L74.0339 10.739L77.1254 7.97285L77.0441 7.8915C76.3118 6.91523 75.4169 6.18302 74.1966 5.77624C72.1627 5.04404 70.1288 4.96268 68.0949 5.53218C67.2 5.77624 66.4678 6.10167 65.8169 6.5898C65.1661 7.07794 64.5966 7.64743 64.1898 8.37963C63.783 9.11184 63.539 10.0068 63.539 10.983C63.539 12.122 63.783 13.0169 64.2712 13.6678C64.7593 14.3186 65.3288 14.8068 66.061 15.2135C66.7932 15.539 67.5254 15.8644 68.339 16.0271C69.1525 16.1898 69.8847 16.3525 70.6169 16.5152C71.2678 16.6779 71.9186 16.922 72.3254 17.2474C72.7322 17.4915 72.9763 17.8983 72.9763 18.5491C72.9763 18.8745 72.8949 19.1186 72.7322 19.3627C72.5695 19.6068 72.3254 19.8508 72.0813 20.0135C71.8373 20.1762 71.5119 20.2576 71.1864 20.339C70.861 20.4203 70.5356 20.4203 70.2102 20.4203C69.3152 20.4203 68.583 20.2576 67.9322 19.8508C67.2813 19.444 66.7119 18.9559 66.1424 18.3051L66.061 18.2237L62.9695 21.1525L63.0508 21.2339C63.9458 22.2915 65.0034 23.0237 66.1424 23.4305C67.2813 23.8373 68.583 24 69.8847 24C70.7797 24 71.6746 23.9186 72.5695 23.6745C73.4644 23.5118 74.278 23.1864 75.0102 22.6983C75.7424 22.2915 76.3119 21.6407 76.8 20.9084C77.2881 20.1762 77.4508 19.2813 77.4508 18.2237C77.4508 17.0847 77.2068 16.1084 76.7186 15.4576C76.3932 14.644 75.8237 14.0745 75.0915 13.6678Z" fill="white"/>
<path d="M116.095 9.51865C115.851 8.70509 115.525 7.89153 114.956 7.24068C114.468 6.58983 113.736 6.1017 112.922 5.69492C112.108 5.28814 111.051 5.12543 109.912 5.12543C108.447 5.12543 107.227 5.45085 106.414 6.1017C105.681 6.67119 105.03 7.40339 104.624 8.1356V5.53221H100.23V23.3492H104.786V13.6678C104.786 13.0983 104.868 12.5288 105.03 12.0407C105.193 11.5525 105.437 11.0644 105.681 10.6576C106.007 10.2509 106.414 9.92543 106.902 9.68136C107.39 9.43729 107.959 9.35594 108.691 9.35594C109.424 9.35594 109.993 9.51865 110.4 9.84407C110.807 10.1695 111.132 10.5763 111.295 11.1458C111.458 11.6339 111.62 12.2034 111.702 12.7729C111.783 13.3424 111.783 13.9119 111.783 14.4V23.4305H116.339V12.122C116.42 11.2271 116.339 10.3322 116.095 9.51865Z" fill="white"/>
<path d="M95.7559 11.7153C95.7559 11.1458 95.6746 10.5763 95.5119 10.0068C95.3492 9.43729 95.1864 8.78644 94.861 8.21695C94.5356 7.64746 94.1288 7.07797 93.5593 6.67119C92.9898 6.26441 92.2576 5.85763 91.4441 5.53221C90.5492 5.28814 89.4915 5.12543 88.2712 5.12543C86.8881 5.12543 85.5051 5.36949 84.2034 5.77627C82.9017 6.18305 81.7627 6.99661 80.7864 7.97288L80.7051 8.05424L83.1458 10.4949L83.2271 10.4136C83.7966 9.84407 84.4475 9.43729 85.261 9.11187C86.0746 8.78644 86.8881 8.62373 87.7831 8.62373C88.922 8.62373 89.8983 8.8678 90.5492 9.43729C91.2814 9.92543 91.6068 10.739 91.6068 11.7966C91.6068 11.7966 91.6068 15.539 91.2814 17.0034C91.2 17.8983 90.8746 18.6305 90.3051 19.2C89.6542 19.9322 88.5153 20.2576 87.0509 20.2576C86.7254 20.2576 86.3186 20.1763 85.9932 20.0949C85.6678 20.0136 85.3424 19.8509 85.017 19.6881C84.7729 19.5254 84.5288 19.2814 84.3661 19.0373C84.2034 18.7932 84.122 18.4678 84.122 18.061C84.122 17.4915 84.3661 17.0034 84.7729 16.678C85.1797 16.3525 85.7492 16.1085 86.4 15.8644C87.0508 15.7017 87.7831 15.539 88.5153 15.539C89.0848 15.539 89.6542 15.4576 90.1424 15.4576V12.2034C89.5729 12.2034 88.922 12.2034 88.3525 12.2847C87.539 12.2847 86.7254 12.4475 85.9119 12.5288C85.0983 12.6915 84.2847 12.8542 83.5525 13.0983C82.8203 13.3424 82.0881 13.7492 81.5186 14.2373C80.9492 14.7254 80.461 15.2949 80.1356 15.9458C79.8102 16.5966 79.6475 17.4915 79.6475 18.4678C79.6475 19.3627 79.8102 20.1763 80.217 20.8271C80.6237 21.478 81.1119 22.0475 81.6814 22.5356C82.2509 22.9424 82.9831 23.3492 83.7153 23.5119C84.4475 23.7559 85.261 23.8373 86.0746 23.8373C87.2136 23.8373 88.3525 23.5932 89.3288 23.1864C90.3051 22.7797 91.0373 22.0475 91.6881 21.0712V23.4305H95.8373V13.1797C95.8373 12.6915 95.8373 12.2034 95.7559 11.7153Z" fill="white"/>
</svg>
